<mxfile host="app.diagrams.net" agent="Mozilla/5.0 (Windows NT 10.0; Win64; x64) AppleWebKit/537.36 (KHTML, like Gecko) Chrome/133.0.0.0 Safari/537.36 Edg/133.0.0.0" version="26.0.16">
  <diagram name="Page-1" id="KpKMQkPkhHiKuYHUHJT5">
    <mxGraphModel dx="2197" dy="719" grid="1" gridSize="10" guides="1" tooltips="1" connect="1" arrows="1" fold="1" page="1" pageScale="1" pageWidth="850" pageHeight="1100" math="0" shadow="0">
      <root>
        <mxCell id="0" />
        <mxCell id="1" parent="0" />
        <mxCell id="rn_PQVA-y_Wa7bsBIupE-49" value="&lt;b&gt;Điểm danh thủ công&lt;/b&gt;" style="shape=umlFrame;whiteSpace=wrap;html=1;pointerEvents=0;width=170;height=30;swimlaneFillColor=default;" vertex="1" parent="1">
          <mxGeometry x="-50" y="30" width="820" height="780" as="geometry" />
        </mxCell>
        <mxCell id="rn_PQVA-y_Wa7bsBIupE-1" value=":Giảng viên" style="shape=umlLifeline;perimeter=lifelinePerimeter;whiteSpace=wrap;html=1;container=1;dropTarget=0;collapsible=0;recursiveResize=0;outlineConnect=0;portConstraint=eastwest;newEdgeStyle={&quot;curved&quot;:0,&quot;rounded&quot;:0};" vertex="1" parent="1">
          <mxGeometry x="100" y="90" width="100" height="720" as="geometry" />
        </mxCell>
        <mxCell id="rn_PQVA-y_Wa7bsBIupE-5" value="" style="html=1;points=[[0,0,0,0,5],[0,1,0,0,-5],[1,0,0,0,5],[1,1,0,0,-5]];perimeter=orthogonalPerimeter;outlineConnect=0;targetShapes=umlLifeline;portConstraint=eastwest;newEdgeStyle={&quot;curved&quot;:0,&quot;rounded&quot;:0};" vertex="1" parent="rn_PQVA-y_Wa7bsBIupE-1">
          <mxGeometry x="45" y="74" width="10" height="606" as="geometry" />
        </mxCell>
        <mxCell id="rn_PQVA-y_Wa7bsBIupE-6" value=":Hệ thống" style="shape=umlLifeline;perimeter=lifelinePerimeter;whiteSpace=wrap;html=1;container=1;dropTarget=0;collapsible=0;recursiveResize=0;outlineConnect=0;portConstraint=eastwest;newEdgeStyle={&quot;curved&quot;:0,&quot;rounded&quot;:0};" vertex="1" parent="1">
          <mxGeometry x="360" y="90" width="100" height="720" as="geometry" />
        </mxCell>
        <mxCell id="rn_PQVA-y_Wa7bsBIupE-9" value="" style="html=1;points=[[0,0,0,0,5],[0,1,0,0,-5],[1,0,0,0,5],[1,1,0,0,-5]];perimeter=orthogonalPerimeter;outlineConnect=0;targetShapes=umlLifeline;portConstraint=eastwest;newEdgeStyle={&quot;curved&quot;:0,&quot;rounded&quot;:0};" vertex="1" parent="rn_PQVA-y_Wa7bsBIupE-6">
          <mxGeometry x="45" y="74" width="10" height="26" as="geometry" />
        </mxCell>
        <mxCell id="rn_PQVA-y_Wa7bsBIupE-8" value="" style="edgeStyle=elbowEdgeStyle;fontSize=12;html=1;endArrow=blockThin;endFill=1;rounded=0;entryX=0;entryY=0;entryDx=0;entryDy=0;entryPerimeter=0;" edge="1" parent="1" target="rn_PQVA-y_Wa7bsBIupE-9">
          <mxGeometry width="160" relative="1" as="geometry">
            <mxPoint x="155" y="164" as="sourcePoint" />
            <mxPoint x="405" y="144" as="targetPoint" />
          </mxGeometry>
        </mxCell>
        <mxCell id="rn_PQVA-y_Wa7bsBIupE-11" value="2.1. Chọn lớp học cần điểm danh" style="edgeLabel;html=1;align=center;verticalAlign=middle;resizable=0;points=[];" vertex="1" connectable="0" parent="rn_PQVA-y_Wa7bsBIupE-8">
          <mxGeometry x="-0.233" y="-2" relative="1" as="geometry">
            <mxPoint x="19" y="-10" as="offset" />
          </mxGeometry>
        </mxCell>
        <mxCell id="rn_PQVA-y_Wa7bsBIupE-14" value="" style="edgeStyle=elbowEdgeStyle;fontSize=12;html=1;endArrow=blockThin;endFill=1;rounded=0;entryX=0;entryY=0;entryDx=0;entryDy=0;entryPerimeter=0;" edge="1" parent="1">
          <mxGeometry width="160" relative="1" as="geometry">
            <mxPoint x="155" y="240" as="sourcePoint" />
            <mxPoint x="405" y="240" as="targetPoint" />
          </mxGeometry>
        </mxCell>
        <mxCell id="rn_PQVA-y_Wa7bsBIupE-15" value="2.2. Chọn chế độ điểm danh thủ công" style="edgeLabel;html=1;align=center;verticalAlign=middle;resizable=0;points=[];" vertex="1" connectable="0" parent="rn_PQVA-y_Wa7bsBIupE-14">
          <mxGeometry x="-0.233" y="-2" relative="1" as="geometry">
            <mxPoint x="19" y="-10" as="offset" />
          </mxGeometry>
        </mxCell>
        <mxCell id="rn_PQVA-y_Wa7bsBIupE-16" value="" style="html=1;points=[[0,0,0,0,5],[0,1,0,0,-5],[1,0,0,0,5],[1,1,0,0,-5]];perimeter=orthogonalPerimeter;outlineConnect=0;targetShapes=umlLifeline;portConstraint=eastwest;newEdgeStyle={&quot;curved&quot;:0,&quot;rounded&quot;:0};" vertex="1" parent="1">
          <mxGeometry x="405" y="240" width="10" height="40" as="geometry" />
        </mxCell>
        <mxCell id="rn_PQVA-y_Wa7bsBIupE-17" value="2.3. Hiển thị danh sách sinh viên" style="html=1;verticalAlign=bottom;endArrow=open;dashed=1;endSize=8;curved=0;rounded=0;" edge="1" parent="1">
          <mxGeometry relative="1" as="geometry">
            <mxPoint x="405" y="279.31" as="sourcePoint" />
            <mxPoint x="155" y="279.31" as="targetPoint" />
          </mxGeometry>
        </mxCell>
        <mxCell id="rn_PQVA-y_Wa7bsBIupE-20" value="" style="edgeStyle=elbowEdgeStyle;fontSize=12;html=1;endArrow=blockThin;endFill=1;rounded=0;entryX=0;entryY=0;entryDx=0;entryDy=0;entryPerimeter=0;" edge="1" parent="1">
          <mxGeometry width="160" relative="1" as="geometry">
            <mxPoint x="155" y="360" as="sourcePoint" />
            <mxPoint x="405" y="360" as="targetPoint" />
          </mxGeometry>
        </mxCell>
        <mxCell id="rn_PQVA-y_Wa7bsBIupE-21" value="2.4. Đánh dấu trạng thái cho từng sinh viên" style="edgeLabel;html=1;align=center;verticalAlign=middle;resizable=0;points=[];" vertex="1" connectable="0" parent="rn_PQVA-y_Wa7bsBIupE-20">
          <mxGeometry x="-0.233" y="-2" relative="1" as="geometry">
            <mxPoint x="19" y="-10" as="offset" />
          </mxGeometry>
        </mxCell>
        <mxCell id="rn_PQVA-y_Wa7bsBIupE-23" value="" style="html=1;points=[[0,0,0,0,5],[0,1,0,0,-5],[1,0,0,0,5],[1,1,0,0,-5]];perimeter=orthogonalPerimeter;outlineConnect=0;targetShapes=umlLifeline;portConstraint=eastwest;newEdgeStyle={&quot;curved&quot;:0,&quot;rounded&quot;:0};" vertex="1" parent="1">
          <mxGeometry x="405" y="360" width="10" height="26" as="geometry" />
        </mxCell>
        <mxCell id="rn_PQVA-y_Wa7bsBIupE-24" value="&lt;b&gt;opt&lt;/b&gt;" style="shape=umlFrame;whiteSpace=wrap;html=1;pointerEvents=0;" vertex="1" parent="1">
          <mxGeometry y="400" width="480" height="100" as="geometry" />
        </mxCell>
        <mxCell id="rn_PQVA-y_Wa7bsBIupE-25" value="&lt;b&gt;&lt;font style=&quot;font-size: 11px;&quot;&gt;Đánh dấu&amp;nbsp;&lt;/font&gt;&lt;/b&gt;&lt;div style=&quot;text-align: left;&quot;&gt;&lt;b&gt;&lt;font style=&quot;font-size: 11px;&quot;&gt;trạng thái&lt;/font&gt;&lt;/b&gt;&lt;/div&gt;" style="text;html=1;align=center;verticalAlign=middle;resizable=0;points=[];autosize=1;strokeColor=none;fillColor=none;" vertex="1" parent="1">
          <mxGeometry x="55" y="400" width="80" height="40" as="geometry" />
        </mxCell>
        <mxCell id="rn_PQVA-y_Wa7bsBIupE-27" value="" style="html=1;points=[[0,0,0,0,5],[0,1,0,0,-5],[1,0,0,0,5],[1,1,0,0,-5]];perimeter=orthogonalPerimeter;outlineConnect=0;targetShapes=umlLifeline;portConstraint=eastwest;newEdgeStyle={&quot;curved&quot;:0,&quot;rounded&quot;:0};" vertex="1" parent="1">
          <mxGeometry x="405" y="450" width="10" height="26" as="geometry" />
        </mxCell>
        <mxCell id="rn_PQVA-y_Wa7bsBIupE-28" value="" style="edgeStyle=elbowEdgeStyle;fontSize=12;html=1;endArrow=blockThin;endFill=1;rounded=0;entryX=0;entryY=0;entryDx=0;entryDy=0;entryPerimeter=0;" edge="1" parent="1">
          <mxGeometry width="160" relative="1" as="geometry">
            <mxPoint x="155" y="450" as="sourcePoint" />
            <mxPoint x="405" y="450" as="targetPoint" />
          </mxGeometry>
        </mxCell>
        <mxCell id="rn_PQVA-y_Wa7bsBIupE-29" value="2.4.1. Thêm ghi chú cho sinh viên" style="edgeLabel;html=1;align=center;verticalAlign=middle;resizable=0;points=[];" vertex="1" connectable="0" parent="rn_PQVA-y_Wa7bsBIupE-28">
          <mxGeometry x="-0.233" y="-2" relative="1" as="geometry">
            <mxPoint x="19" y="-10" as="offset" />
          </mxGeometry>
        </mxCell>
        <mxCell id="rn_PQVA-y_Wa7bsBIupE-30" value="&lt;b&gt;loop&lt;/b&gt;" style="shape=umlFrame;whiteSpace=wrap;html=1;pointerEvents=0;" vertex="1" parent="1">
          <mxGeometry x="-20" y="310" width="530" height="210" as="geometry" />
        </mxCell>
        <mxCell id="rn_PQVA-y_Wa7bsBIupE-31" value="&lt;span style=&quot;font-size: 11px;&quot;&gt;&lt;b&gt;Điểm danh&amp;nbsp;&lt;/b&gt;&lt;/span&gt;&lt;div style=&quot;text-align: left;&quot;&gt;&lt;span style=&quot;font-size: 11px;&quot;&gt;&lt;b&gt;sinh viên&lt;/b&gt;&lt;/span&gt;&lt;/div&gt;" style="text;html=1;align=center;verticalAlign=middle;resizable=0;points=[];autosize=1;strokeColor=none;fillColor=none;" vertex="1" parent="1">
          <mxGeometry x="40" y="310" width="80" height="40" as="geometry" />
        </mxCell>
        <mxCell id="rn_PQVA-y_Wa7bsBIupE-34" value="&lt;b&gt;opt&lt;/b&gt;" style="shape=umlFrame;whiteSpace=wrap;html=1;pointerEvents=0;" vertex="1" parent="1">
          <mxGeometry x="-20" y="560" width="530" height="100" as="geometry" />
        </mxCell>
        <mxCell id="rn_PQVA-y_Wa7bsBIupE-35" value="&lt;span style=&quot;font-size: 11px;&quot;&gt;&lt;b&gt;Kiểm tra sinh viên&amp;nbsp;&lt;/b&gt;&lt;/span&gt;&lt;div&gt;&lt;span style=&quot;font-size: 11px;&quot;&gt;&lt;b&gt;bị bỏ sót&lt;/b&gt;&lt;/span&gt;&lt;/div&gt;" style="text;html=1;align=left;verticalAlign=middle;resizable=0;points=[];autosize=1;strokeColor=none;fillColor=none;" vertex="1" parent="1">
          <mxGeometry x="43" y="560" width="120" height="40" as="geometry" />
        </mxCell>
        <mxCell id="rn_PQVA-y_Wa7bsBIupE-37" value="" style="html=1;points=[[0,0,0,0,5],[0,1,0,0,-5],[1,0,0,0,5],[1,1,0,0,-5]];perimeter=orthogonalPerimeter;outlineConnect=0;targetShapes=umlLifeline;portConstraint=eastwest;newEdgeStyle={&quot;curved&quot;:0,&quot;rounded&quot;:0};" vertex="1" parent="1">
          <mxGeometry x="405" y="610" width="10" height="26" as="geometry" />
        </mxCell>
        <mxCell id="rn_PQVA-y_Wa7bsBIupE-38" value="" style="edgeStyle=elbowEdgeStyle;fontSize=12;html=1;endArrow=none;endFill=1;rounded=0;entryX=0;entryY=0;entryDx=0;entryDy=0;entryPerimeter=0;startFill=1;startArrow=blockThin;" edge="1" parent="1">
          <mxGeometry width="160" relative="1" as="geometry">
            <mxPoint x="155" y="610" as="sourcePoint" />
            <mxPoint x="405" y="610" as="targetPoint" />
          </mxGeometry>
        </mxCell>
        <mxCell id="rn_PQVA-y_Wa7bsBIupE-39" value="2.5.1. Thông báo sinh viên chưa được đánh dấu" style="edgeLabel;html=1;align=center;verticalAlign=middle;resizable=0;points=[];" vertex="1" connectable="0" parent="rn_PQVA-y_Wa7bsBIupE-38">
          <mxGeometry x="-0.233" y="-2" relative="1" as="geometry">
            <mxPoint x="30" y="-13" as="offset" />
          </mxGeometry>
        </mxCell>
        <mxCell id="rn_PQVA-y_Wa7bsBIupE-40" value="" style="edgeStyle=elbowEdgeStyle;fontSize=12;html=1;endArrow=blockThin;endFill=1;rounded=0;entryX=0;entryY=0;entryDx=0;entryDy=0;entryPerimeter=0;dashed=1;" edge="1" parent="1">
          <mxGeometry width="160" relative="1" as="geometry">
            <mxPoint x="155" y="635.4300000000001" as="sourcePoint" />
            <mxPoint x="405" y="635.4300000000001" as="targetPoint" />
          </mxGeometry>
        </mxCell>
        <mxCell id="rn_PQVA-y_Wa7bsBIupE-41" value="2.5.1. Đánh dấu các sinh viên bị bỏ sót" style="edgeLabel;html=1;align=center;verticalAlign=middle;resizable=0;points=[];" vertex="1" connectable="0" parent="rn_PQVA-y_Wa7bsBIupE-40">
          <mxGeometry x="-0.233" y="-2" relative="1" as="geometry">
            <mxPoint x="27" y="-12" as="offset" />
          </mxGeometry>
        </mxCell>
        <mxCell id="rn_PQVA-y_Wa7bsBIupE-42" value="" style="html=1;points=[[0,0,0,0,5],[0,1,0,0,-5],[1,0,0,0,5],[1,1,0,0,-5]];perimeter=orthogonalPerimeter;outlineConnect=0;targetShapes=umlLifeline;portConstraint=eastwest;newEdgeStyle={&quot;curved&quot;:0,&quot;rounded&quot;:0};" vertex="1" parent="1">
          <mxGeometry x="405" y="690" width="10" height="70" as="geometry" />
        </mxCell>
        <mxCell id="rn_PQVA-y_Wa7bsBIupE-43" value="" style="edgeStyle=elbowEdgeStyle;fontSize=12;html=1;endArrow=blockThin;endFill=1;rounded=0;" edge="1" parent="1">
          <mxGeometry width="160" relative="1" as="geometry">
            <mxPoint x="415" y="700" as="sourcePoint" />
            <mxPoint x="415" y="722.5" as="targetPoint" />
            <Array as="points">
              <mxPoint x="440" y="722.5" />
              <mxPoint x="490" y="710" />
            </Array>
          </mxGeometry>
        </mxCell>
        <mxCell id="rn_PQVA-y_Wa7bsBIupE-44" value="&lt;font style=&quot;font-size: 11px;&quot;&gt;2.6. Lưu trữ dữ liệu&amp;nbsp;&lt;/font&gt;&lt;div&gt;&lt;font style=&quot;font-size: 11px;&quot;&gt;điểm danh&lt;/font&gt;&lt;/div&gt;" style="text;html=1;align=center;verticalAlign=middle;resizable=0;points=[];autosize=1;strokeColor=none;fillColor=none;" vertex="1" parent="1">
          <mxGeometry x="435" y="691" width="120" height="40" as="geometry" />
        </mxCell>
        <mxCell id="rn_PQVA-y_Wa7bsBIupE-45" value=":Sinh viên" style="shape=umlLifeline;perimeter=lifelinePerimeter;whiteSpace=wrap;html=1;container=1;dropTarget=0;collapsible=0;recursiveResize=0;outlineConnect=0;portConstraint=eastwest;newEdgeStyle={&quot;curved&quot;:0,&quot;rounded&quot;:0};" vertex="1" parent="1">
          <mxGeometry x="620" y="90" width="100" height="720" as="geometry" />
        </mxCell>
        <mxCell id="rn_PQVA-y_Wa7bsBIupE-46" value="" style="html=1;points=[[0,0,0,0,5],[0,1,0,0,-5],[1,0,0,0,5],[1,1,0,0,-5]];perimeter=orthogonalPerimeter;outlineConnect=0;targetShapes=umlLifeline;portConstraint=eastwest;newEdgeStyle={&quot;curved&quot;:0,&quot;rounded&quot;:0};" vertex="1" parent="1">
          <mxGeometry x="665" y="691" width="10" height="69" as="geometry" />
        </mxCell>
        <mxCell id="rn_PQVA-y_Wa7bsBIupE-47" value="" style="edgeStyle=elbowEdgeStyle;fontSize=12;html=1;endArrow=blockThin;endFill=1;rounded=0;entryX=0;entryY=0;entryDx=0;entryDy=0;entryPerimeter=0;" edge="1" parent="1">
          <mxGeometry width="160" relative="1" as="geometry">
            <mxPoint x="415" y="759.7599999999999" as="sourcePoint" />
            <mxPoint x="665" y="759.7599999999999" as="targetPoint" />
          </mxGeometry>
        </mxCell>
        <mxCell id="rn_PQVA-y_Wa7bsBIupE-48" value="2.6. Gửi thông báo tới sinh viên" style="edgeLabel;html=1;align=center;verticalAlign=middle;resizable=0;points=[];" vertex="1" connectable="0" parent="rn_PQVA-y_Wa7bsBIupE-47">
          <mxGeometry x="-0.233" y="-2" relative="1" as="geometry">
            <mxPoint x="19" y="-10" as="offset" />
          </mxGeometry>
        </mxCell>
      </root>
    </mxGraphModel>
  </diagram>
</mxfile>
